<svg width="70" height="70" viewBox="0 0 70 70" fill="none" xmlns="http://www.w3.org/2000/svg">
<g id="edit">
<path id="Vector 268" d="M2.33301 48.9999L1.97945 48.6464L1.83301 48.7928V48.9999H2.33301ZM48.9997 2.33325L49.3532 1.9797C49.158 1.78444 48.8414 1.78444 48.6461 1.9797L48.9997 2.33325ZM67.6663 20.9999L68.0199 21.3535C68.2152 21.1582 68.2152 20.8416 68.0199 20.6464L67.6663 20.9999ZM20.9997 67.6666V68.1666H21.2068L21.3532 68.0201L20.9997 67.6666ZM2.33301 67.6666H1.83301C1.83301 67.9427 2.05687 68.1666 2.33301 68.1666V67.6666ZM2.68656 49.3535L49.3532 2.68681L48.6461 1.9797L1.97945 48.6464L2.68656 49.3535ZM48.6461 2.68681L67.3128 21.3535L68.0199 20.6464L49.3532 1.9797L48.6461 2.68681ZM67.3128 20.6464L20.6461 67.313L21.3532 68.0201L68.0199 21.3535L67.3128 20.6464ZM20.9997 67.1666H2.33301V68.1666H20.9997V67.1666ZM2.83301 67.6666V48.9999H1.83301V67.6666H2.83301Z" fill="#EBEBEB"/>
</g>
</svg>
